<svg width="165" height="31" viewBox="0 0 165 31" fill="none" xmlns="http://www.w3.org/2000/svg">
<path d="M32.354 22.418C32.6487 22.418 32.8753 22.554 33.034 22.826C33.2153 23.098 33.306 23.472 33.306 23.948C33.306 24.832 33.0907 25.5347 32.66 26.056C31.572 27.3707 30.4727 28.3907 29.362 29.116C28.2513 29.8187 26.9367 30.17 25.418 30.17C23.9447 30.17 22.6867 29.7733 21.644 28.98C20.624 28.1867 19.6493 26.8267 18.72 24.9C17.972 23.3587 17.3827 22.2253 16.952 21.5C16.5213 20.752 16.0907 20.2193 15.66 19.902C15.252 19.5847 14.742 19.392 14.13 19.324C14.0393 19.8 13.7787 21.296 13.348 23.812C13.1667 24.9453 13.0533 25.6367 13.008 25.886C12.7813 27.2687 12.328 28.334 11.648 29.082C10.968 29.8073 9.93667 30.17 8.554 30.17C7.03533 30.17 5.68667 29.728 4.508 28.844C3.352 27.9373 2.45667 26.6907 1.822 25.104C1.18733 23.4947 0.87 21.67 0.87 19.63C0.87 15.822 1.52733 12.5353 2.842 9.77C4.17933 7.00467 6.038 4.89667 8.418 3.446C10.8207 1.97267 13.586 1.236 16.714 1.236C18.89 1.236 20.7147 1.56467 22.188 2.222C23.6613 2.87933 24.7493 3.786 25.452 4.942C26.1773 6.098 26.54 7.40133 26.54 8.852C26.54 10.1213 26.234 11.368 25.622 12.592C25.0327 13.7933 24.1373 14.8587 22.936 15.788C21.7347 16.7173 20.2727 17.4087 18.55 17.862C19.638 18.1567 20.4767 18.6327 21.066 19.29C21.6553 19.9473 22.2447 20.9107 22.834 22.18C23.4687 23.54 24.092 24.5373 24.704 25.172C25.3387 25.8067 26.064 26.124 26.88 26.124C27.6053 26.124 28.2967 25.886 28.954 25.41C29.6113 24.9113 30.4387 24.0727 31.436 22.894C31.708 22.5767 32.014 22.418 32.354 22.418ZM9.438 19.29C8.66733 19.29 8.13467 19.1087 7.84 18.746C7.568 18.3833 7.432 17.9753 7.432 17.522C7.432 16.978 7.602 16.5473 7.942 16.23C8.30467 15.9127 8.71267 15.754 9.166 15.754H10.016C10.3787 13.5327 10.7187 11.6173 11.036 10.008C11.3307 8.53467 12.2827 7.798 13.892 7.798C15.184 7.798 15.83 8.376 15.83 9.532C15.83 9.78133 15.8187 9.974 15.796 10.11L14.776 15.754C16 15.686 17.1107 15.3913 18.108 14.87C19.128 14.3487 19.9327 13.6233 20.522 12.694C21.134 11.7647 21.44 10.7107 21.44 9.532C21.44 8.104 20.9527 6.982 19.978 6.166C19.0033 5.35 17.5753 4.942 15.694 4.942C13.4727 4.942 11.5233 5.49733 9.846 6.608C8.19133 7.696 6.89933 9.328 5.97 11.504C5.04067 13.6573 4.576 16.2867 4.576 19.392C4.576 20.8427 4.72333 22.0893 5.018 23.132C5.31267 24.1747 5.67533 24.9567 6.106 25.478C6.53667 25.9993 6.94467 26.26 7.33 26.26C7.62467 26.26 7.86267 26.1127 8.044 25.818C8.248 25.5233 8.40667 25.0473 8.52 24.39L9.438 19.29ZM45.048 22.418C45.3426 22.418 45.5693 22.554 45.728 22.826C45.9093 23.098 46 23.472 46 23.948C46 24.8547 45.7846 25.5573 45.354 26.056C44.5153 27.076 43.3253 28.0167 41.784 28.878C40.2653 29.7393 38.6333 30.17 36.888 30.17C34.508 30.17 32.6606 29.524 31.346 28.232C30.0313 26.94 29.374 25.172 29.374 22.928C29.374 21.364 29.7026 19.9133 30.36 18.576C31.0173 17.216 31.924 16.1393 33.08 15.346C34.2586 14.5527 35.5846 14.156 37.058 14.156C38.3726 14.156 39.4266 14.5527 40.22 15.346C41.0133 16.1167 41.41 17.1707 41.41 18.508C41.41 20.072 40.8433 21.4207 39.71 22.554C38.5993 23.6647 36.7066 24.5487 34.032 25.206C34.5986 26.2487 35.6753 26.77 37.262 26.77C38.282 26.77 39.438 26.4187 40.73 25.716C42.0446 24.9907 43.178 24.05 44.13 22.894C44.402 22.5767 44.708 22.418 45.048 22.418ZM36.48 17.488C35.6413 17.488 34.9273 17.9753 34.338 18.95C33.7713 19.9247 33.488 21.1033 33.488 22.486V22.554C34.8253 22.2367 35.8793 21.7607 36.65 21.126C37.4206 20.4913 37.806 19.7547 37.806 18.916C37.806 18.4853 37.6813 18.1453 37.432 17.896C37.2053 17.624 36.888 17.488 36.48 17.488ZM49.5556 30.918C48.3769 30.918 47.4703 30.646 46.8356 30.102C46.2236 29.558 45.9176 28.946 45.9176 28.266C45.9176 27.6767 46.1329 27.1667 46.5636 26.736C46.9943 26.3053 47.6289 26.09 48.4676 26.09C48.7623 26.09 49.1023 26.124 49.4876 26.192C49.8956 26.2373 50.2016 26.2713 50.4056 26.294C50.3829 25.7047 50.2469 25.1493 49.9976 24.628C49.7709 24.1067 49.4763 23.608 49.1136 23.132C48.7509 22.6333 48.4109 22.2027 48.0936 21.84C47.3909 23.1773 46.6883 24.288 45.9856 25.172C45.3056 26.056 44.5576 26.8947 43.7416 27.688C43.3336 28.096 42.9029 28.3 42.4496 28.3C42.0869 28.3 41.7923 28.1753 41.5656 27.926C41.3389 27.654 41.2256 27.3253 41.2256 26.94C41.2256 26.4867 41.3843 26.0673 41.7016 25.682L42.1436 25.138C43.3903 23.5967 44.3309 22.3273 44.9656 21.33C45.3509 20.6727 45.8043 19.8 46.3256 18.712C46.8469 17.6013 47.3569 16.4567 47.8556 15.278C48.2863 14.2807 49.1816 13.782 50.5416 13.782C51.1763 13.782 51.6183 13.8387 51.8676 13.952C52.1169 14.0653 52.2416 14.2467 52.2416 14.496C52.2416 14.632 52.1963 14.8473 52.1056 15.142C52.0149 15.4367 51.8903 15.7313 51.7316 16.026C51.3236 16.842 51.1196 17.5333 51.1196 18.1C51.1196 18.44 51.2329 18.814 51.4596 19.222C51.7089 19.63 52.0829 20.14 52.5816 20.752C53.3069 21.704 53.8509 22.52 54.2136 23.2C54.5989 23.8573 54.7916 24.5827 54.7916 25.376C54.7916 25.6027 54.7689 25.92 54.7236 26.328C55.8343 25.8973 57.1376 24.7527 58.6336 22.894C58.9056 22.5767 59.2116 22.418 59.5516 22.418C59.8463 22.418 60.0729 22.554 60.2316 22.826C60.4129 23.098 60.5036 23.472 60.5036 23.948C60.5036 24.8093 60.2883 25.512 59.8576 26.056C58.7243 27.4613 57.6363 28.4247 56.5936 28.946C55.5736 29.4447 54.3043 29.7167 52.7856 29.762C51.8789 30.5327 50.8023 30.918 49.5556 30.918ZM72.9054 22.418C73.2 22.418 73.4267 22.554 73.5854 22.826C73.7667 23.098 73.8574 23.472 73.8574 23.948C73.8574 24.8547 73.642 25.5573 73.2114 26.056C72.2367 27.2573 71.1714 28.2433 70.0154 29.014C68.8594 29.7847 67.5334 30.17 66.0374 30.17C61.4134 30.17 59.1014 26.9173 59.1014 20.412C59.1014 19.4147 59.1354 18.406 59.2034 17.386H57.8774C57.1974 17.386 56.7327 17.2613 56.4834 17.012C56.2567 16.7627 56.1434 16.366 56.1434 15.822C56.1434 14.5527 56.6534 13.918 57.6734 13.918H59.6114C59.9967 11.4247 60.586 9.14667 61.3794 7.084C62.1727 5.02133 63.1247 3.378 64.2354 2.154C65.3687 0.929999 66.5814 0.317999 67.8734 0.317999C68.8254 0.317999 69.5734 0.737332 70.1174 1.576C70.6614 2.41467 70.9334 3.46867 70.9334 4.738C70.9334 8.25133 69.46 11.3113 66.5134 13.918H70.3214C70.684 13.918 70.9447 13.9973 71.1034 14.156C71.262 14.3147 71.3414 14.6093 71.3414 15.04C71.3414 16.604 70.0607 17.386 67.4994 17.386H63.3514C63.306 18.5193 63.2834 19.4033 63.2834 20.038C63.2834 22.3953 63.5554 24.05 64.0994 25.002C64.666 25.954 65.55 26.43 66.7514 26.43C67.726 26.43 68.5874 26.1353 69.3354 25.546C70.0834 24.9567 70.9674 24.0727 71.9874 22.894C72.2594 22.5767 72.5654 22.418 72.9054 22.418ZM66.9554 3.582C66.6154 3.582 66.23 4.01267 65.7994 4.874C65.3914 5.71267 64.9947 6.89133 64.6094 8.41C64.2467 9.906 63.9407 11.572 63.6914 13.408C65.0287 12.252 66.026 10.96 66.6834 9.532C67.3634 8.08133 67.7034 6.76667 67.7034 5.588C67.7034 4.25067 67.454 3.582 66.9554 3.582ZM75.271 30.17C73.8657 30.17 72.7437 29.66 71.905 28.64C71.0664 27.62 70.647 26.2827 70.647 24.628C70.647 22.8147 71.0664 21.1033 71.905 19.494C72.7437 17.862 73.8544 16.5587 75.237 15.584C76.6424 14.5867 78.127 14.088 79.691 14.088C80.1897 14.088 80.5184 14.19 80.677 14.394C80.8584 14.5753 81.0057 14.9153 81.119 15.414C81.595 15.3233 82.0937 15.278 82.615 15.278C83.7257 15.278 84.281 15.6747 84.281 16.468C84.281 16.944 84.111 18.0773 83.771 19.868C83.2497 22.4747 82.989 24.288 82.989 25.308C82.989 25.648 83.0684 25.92 83.227 26.124C83.4084 26.328 83.635 26.43 83.907 26.43C84.3377 26.43 84.859 26.158 85.471 25.614C86.083 25.0473 86.9104 24.1407 87.953 22.894C88.225 22.5767 88.531 22.418 88.871 22.418C89.1657 22.418 89.3924 22.554 89.551 22.826C89.7324 23.098 89.823 23.472 89.823 23.948C89.823 24.8547 89.6077 25.5573 89.177 26.056C88.2477 27.212 87.2617 28.1867 86.219 28.98C85.1764 29.7733 84.1677 30.17 83.193 30.17C82.445 30.17 81.7537 29.9207 81.119 29.422C80.507 28.9007 80.0424 28.198 79.725 27.314C78.5464 29.218 77.0617 30.17 75.271 30.17ZM76.495 26.736C76.9937 26.736 77.4697 26.4413 77.923 25.852C78.3764 25.2627 78.705 24.4807 78.909 23.506L80.167 17.25C79.215 17.2727 78.331 17.6353 77.515 18.338C76.7217 19.018 76.087 19.9247 75.611 21.058C75.135 22.1913 74.897 23.3927 74.897 24.662C74.897 25.3647 75.033 25.886 75.305 26.226C75.5997 26.566 75.9964 26.736 76.495 26.736ZM90.5277 30.17C89.5077 30.17 88.6691 29.7053 88.0117 28.776C87.3771 27.824 87.0597 26.6453 87.0597 25.24C87.0597 23.54 87.1731 21.9873 87.3997 20.582C87.6264 19.154 88.0004 17.6467 88.5217 16.06C88.7484 15.38 89.0657 14.8927 89.4737 14.598C89.8817 14.3033 90.5277 14.156 91.4117 14.156C91.9104 14.156 92.2504 14.2353 92.4317 14.394C92.6357 14.5527 92.7377 14.7907 92.7377 15.108C92.7377 15.2893 92.6131 15.9013 92.3637 16.944C92.1371 17.7827 91.9557 18.542 91.8197 19.222C91.3664 21.602 91.1397 23.1887 91.1397 23.982C91.1397 24.458 91.1964 24.798 91.3097 25.002C91.4231 25.1833 91.6044 25.274 91.8537 25.274C92.1937 25.274 92.6131 24.934 93.1117 24.254C93.6331 23.574 94.1771 22.5427 94.7437 21.16C95.3331 19.7773 95.8997 18.0773 96.4437 16.06C96.6251 15.38 96.8971 14.8927 97.2597 14.598C97.6451 14.3033 98.2117 14.156 98.9597 14.156C99.4811 14.156 99.8437 14.224 100.048 14.36C100.252 14.4733 100.354 14.7 100.354 15.04C100.354 15.6067 100.07 17.1593 99.5037 19.698C98.8691 22.5993 98.5517 24.39 98.5517 25.07C98.5517 25.5007 98.6424 25.8407 98.8237 26.09C99.0051 26.3167 99.2431 26.43 99.5377 26.43C99.9911 26.43 100.524 26.158 101.136 25.614C101.77 25.0473 102.609 24.1407 103.652 22.894C103.924 22.5767 104.23 22.418 104.57 22.418C104.864 22.418 105.091 22.554 105.25 22.826C105.431 23.098 105.522 23.472 105.522 23.948C105.522 24.8547 105.306 25.5573 104.876 26.056C103.901 27.2573 102.847 28.2433 101.714 29.014C100.603 29.7847 99.3337 30.17 97.9057 30.17C96.8177 30.17 96.0131 29.7507 95.4917 28.912C94.9931 28.0733 94.7437 26.8947 94.7437 25.376C94.3584 26.9173 93.7804 28.1073 93.0097 28.946C92.2391 29.762 91.4117 30.17 90.5277 30.17ZM105.179 30.17C104.317 30.17 103.705 29.7167 103.343 28.81C103.003 27.9033 102.833 26.4527 102.833 24.458C102.833 21.5113 103.252 18.712 104.091 16.06C104.295 15.4027 104.623 14.9267 105.077 14.632C105.553 14.3147 106.21 14.156 107.049 14.156C107.502 14.156 107.819 14.2127 108.001 14.326C108.182 14.4393 108.273 14.6547 108.273 14.972C108.273 15.3347 108.103 16.1507 107.763 17.42C107.536 18.3267 107.355 19.12 107.219 19.8C107.083 20.48 106.969 21.3187 106.879 22.316C107.627 20.3667 108.465 18.78 109.395 17.556C110.324 16.332 111.231 15.4593 112.115 14.938C113.021 14.4167 113.849 14.156 114.597 14.156C116.07 14.156 116.807 14.8927 116.807 16.366C116.807 16.6607 116.705 17.3747 116.501 18.508C116.319 19.4147 116.229 19.9813 116.229 20.208C116.229 21.0013 116.512 21.398 117.079 21.398C117.713 21.398 118.529 20.8993 119.527 19.902C119.821 19.6073 120.127 19.46 120.445 19.46C120.739 19.46 120.966 19.596 121.125 19.868C121.306 20.1173 121.397 20.4573 121.397 20.888C121.397 21.7267 121.17 22.384 120.717 22.86C120.082 23.5173 119.334 24.084 118.473 24.56C117.634 25.0133 116.739 25.24 115.787 25.24C114.585 25.24 113.667 24.934 113.033 24.322C112.421 23.71 112.115 22.8827 112.115 21.84C112.115 21.5 112.149 21.16 112.217 20.82C112.262 20.3667 112.285 20.0607 112.285 19.902C112.285 19.5393 112.16 19.358 111.911 19.358C111.571 19.358 111.117 19.7433 110.551 20.514C110.007 21.262 109.463 22.2593 108.919 23.506C108.375 24.7527 107.933 26.0673 107.593 27.45C107.343 28.5153 107.049 29.2407 106.709 29.626C106.391 29.9887 105.881 30.17 105.179 30.17ZM122.419 30.17C121.014 30.17 119.892 29.66 119.053 28.64C118.215 27.62 117.795 26.2827 117.795 24.628C117.795 22.8147 118.215 21.1033 119.053 19.494C119.892 17.862 121.003 16.5587 122.385 15.584C123.791 14.5867 125.275 14.088 126.839 14.088C127.338 14.088 127.667 14.19 127.825 14.394C128.007 14.5753 128.154 14.9153 128.267 15.414C128.743 15.3233 129.242 15.278 129.763 15.278C130.874 15.278 131.429 15.6747 131.429 16.468C131.429 16.944 131.259 18.0773 130.919 19.868C130.398 22.4747 130.137 24.288 130.137 25.308C130.137 25.648 130.217 25.92 130.375 26.124C130.557 26.328 130.783 26.43 131.055 26.43C131.486 26.43 132.007 26.158 132.619 25.614C133.231 25.0473 134.059 24.1407 135.101 22.894C135.373 22.5767 135.679 22.418 136.019 22.418C136.314 22.418 136.541 22.554 136.699 22.826C136.881 23.098 136.971 23.472 136.971 23.948C136.971 24.8547 136.756 25.5573 136.325 26.056C135.396 27.212 134.41 28.1867 133.367 28.98C132.325 29.7733 131.316 30.17 130.341 30.17C129.593 30.17 128.902 29.9207 128.267 29.422C127.655 28.9007 127.191 28.198 126.873 27.314C125.695 29.218 124.21 30.17 122.419 30.17ZM123.643 26.736C124.142 26.736 124.618 26.4413 125.071 25.852C125.525 25.2627 125.853 24.4807 126.057 23.506L127.315 17.25C126.363 17.2727 125.479 17.6353 124.663 18.338C123.87 19.018 123.235 19.9247 122.759 21.058C122.283 22.1913 122.045 23.3927 122.045 24.662C122.045 25.3647 122.181 25.886 122.453 26.226C122.748 26.566 123.145 26.736 123.643 26.736ZM136.622 30.17C135.761 30.17 135.149 29.7167 134.786 28.81C134.446 27.9033 134.276 26.4527 134.276 24.458C134.276 21.5113 134.696 18.712 135.534 16.06C135.738 15.4027 136.067 14.9267 136.52 14.632C136.996 14.3147 137.654 14.156 138.492 14.156C138.946 14.156 139.263 14.2127 139.444 14.326C139.626 14.4393 139.716 14.6547 139.716 14.972C139.716 15.3347 139.546 16.1507 139.206 17.42C138.98 18.3267 138.798 19.12 138.662 19.8C138.526 20.48 138.413 21.3187 138.322 22.316C139.07 20.3667 139.909 18.78 140.838 17.556C141.768 16.332 142.674 15.4593 143.558 14.938C144.465 14.4167 145.292 14.156 146.04 14.156C147.514 14.156 148.25 14.8927 148.25 16.366C148.25 17.25 148.001 18.848 147.502 21.16C147.072 23.132 146.856 24.4353 146.856 25.07C146.856 25.9767 147.185 26.43 147.842 26.43C148.296 26.43 148.828 26.158 149.44 25.614C150.075 25.0473 150.914 24.1407 151.956 22.894C152.228 22.5767 152.534 22.418 152.874 22.418C153.169 22.418 153.396 22.554 153.554 22.826C153.736 23.098 153.826 23.472 153.826 23.948C153.826 24.8547 153.611 25.5573 153.18 26.056C152.206 27.2573 151.152 28.2433 150.018 29.014C148.908 29.7847 147.638 30.17 146.21 30.17C145.054 30.17 144.182 29.8413 143.592 29.184C143.003 28.504 142.708 27.5293 142.708 26.26C142.708 25.6253 142.867 24.492 143.184 22.86C143.479 21.432 143.626 20.446 143.626 19.902C143.626 19.5393 143.502 19.358 143.252 19.358C142.958 19.358 142.538 19.7433 141.994 20.514C141.473 21.262 140.929 22.2593 140.362 23.506C139.818 24.7527 139.376 26.0673 139.036 27.45C138.787 28.5153 138.492 29.2407 138.152 29.626C137.835 29.9887 137.325 30.17 136.622 30.17ZM156.685 17.386C156.64 18.5193 156.617 19.4033 156.617 20.038C156.617 21.67 156.697 22.9507 156.855 23.88C157.037 24.7867 157.32 25.444 157.705 25.852C158.113 26.2373 158.669 26.43 159.371 26.43C159.734 26.43 160.165 26.3167 160.663 26.09C161.162 25.8633 161.615 25.5687 162.023 25.206C162.273 24.9793 162.522 24.866 162.771 24.866C163.043 24.866 163.259 25.0247 163.417 25.342C163.599 25.6367 163.689 25.9993 163.689 26.43C163.689 26.8607 163.599 27.28 163.417 27.688C163.259 28.096 163.009 28.436 162.669 28.708C161.491 29.6827 160.153 30.17 158.657 30.17C156.504 30.17 154.929 29.2747 153.931 27.484C152.934 25.6707 152.435 23.3133 152.435 20.412C152.435 19.4147 152.469 18.406 152.537 17.386H151.211C150.531 17.386 150.067 17.2613 149.817 17.012C149.591 16.7627 149.477 16.366 149.477 15.822C149.477 14.5527 149.987 13.918 151.007 13.918H152.945C153.331 11.4247 153.92 9.14667 154.713 7.084C155.507 5.02133 156.459 3.378 157.569 2.154C158.703 0.929999 159.915 0.317999 161.207 0.317999C162.159 0.317999 162.907 0.737332 163.451 1.576C163.995 2.41467 164.267 3.46867 164.267 4.738C164.267 8.25133 162.794 11.3113 159.847 13.918H163.655C164.018 13.918 164.279 13.9973 164.437 14.156C164.596 14.3147 164.675 14.6093 164.675 15.04C164.675 16.604 163.395 17.386 160.833 17.386H156.685ZM160.289 3.582C159.949 3.582 159.564 4.01267 159.133 4.874C158.725 5.71267 158.329 6.89133 157.943 8.41C157.581 9.906 157.275 11.572 157.025 13.408C158.363 12.252 159.36 10.96 160.017 9.532C160.697 8.08133 161.037 6.76667 161.037 5.588C161.037 4.25067 160.788 3.582 160.289 3.582Z" fill="white"/>
</svg>
