<svg width="487" height="87" viewBox="0 0 487 87" fill="none" xmlns="http://www.w3.org/2000/svg">
<path d="M71.76 4.92C75.52 7.95999 77.4 11.84 77.4 16.56C77.4 21.28 76 25.44 73.2 29.04C68.24 35.6 60.6 39.84 50.28 41.76L46.44 42.48C50.44 56.4 58.84 70.16 71.64 83.76C70.44 84 68.6 84.12 66.12 84.12L56.88 83.76C53.68 83.76 50.28 80.64 46.68 74.4C43.16 68.08 40.36 61.68 38.28 55.2C36.2 48.64 35.16 44.28 35.16 42.12C35.16 40.92 35.72 40.28 36.84 40.2C55.64 37.88 65.32 30.52 65.88 18.12C65.88 13.72 64.56 10.32 61.92 7.92C59.36 5.52 55.12 4.16 49.2 3.83999C42.96 12.24 36.04 25.68 28.44 44.16C20.92 62.96 17.16 75.36 17.16 81.36C17.16 82.56 17.32 83.44 17.64 84H2.16C4.4 74.32 9.12 60.88 16.32 43.68C25.92 20.8 32.12 7.8 34.92 4.68C28.12 4.84 21.2 6.24 14.16 8.87999C7.2 11.44 3.16 14.52 2.04 18.12C1.96 18.36 1.8 18.48 1.56 18.48C0.84 18.48 0.48 17.96 0.48 16.92C0.48 16.76 0.56 16.36 0.72 15.72C2.24 11.32 4.44 7.92 7.32 5.51999C10.2 3.12 13 1.64 15.72 1.07999C18.52 0.519997 21.96 0.239998 26.04 0.239998H55.2C62.56 0.239998 68.08 1.8 71.76 4.92ZM119.586 52.8C120.066 52.8 120.306 53.6 120.306 55.2C120.306 56.72 119.666 58.56 118.386 60.72C117.106 62.88 115.826 64.92 114.546 66.84C113.346 68.76 111.706 71 109.626 73.56C107.546 76.12 105.506 78.16 103.506 79.68C98.4656 83.36 93.3856 85.2 88.2656 85.2C83.2256 85.2 79.1456 83.92 76.0256 81.36C72.9056 78.72 71.3456 74.72 71.3456 69.36C71.3456 61.2 74.3456 53.64 80.3456 46.68C86.3456 39.72 93.3456 36.24 101.346 36.24C104.946 36.24 107.826 37.2 109.986 39.12C112.146 40.96 113.226 43.2 113.226 45.84C113.226 50.32 111.106 53.92 106.866 56.64C102.626 59.36 97.6256 60.72 91.8656 60.72C88.5056 60.72 86.0256 60.28 84.4256 59.4C82.9056 63.48 82.1456 67.08 82.1456 70.2C82.1456 76.92 84.9856 80.28 90.6656 80.28C94.0256 80.28 97.4656 79 100.986 76.44C104.586 73.8 107.626 70.88 110.106 67.68C112.666 64.4 115.546 59.72 118.746 53.64C119.066 53.08 119.346 52.8 119.586 52.8ZM106.866 43.32C106.866 41 105.746 39.84 103.506 39.84C100.386 39.84 96.9056 41.76 93.0656 45.6C89.2256 49.44 87.3056 52.56 87.3056 54.96C87.3056 56.56 88.8256 57.36 91.8656 57.36C94.9056 57.36 98.0656 55.88 101.346 52.92C104.706 49.96 106.546 46.76 106.866 43.32ZM164.393 59.64C158.393 69.64 152.953 76.6 148.073 80.52C143.193 84.44 136.873 86.4 129.113 86.4C124.633 86.4 120.873 85.56 117.833 83.88C114.793 82.12 113.273 79.56 113.273 76.2C113.273 74.28 113.833 72.52 114.953 70.92C116.073 69.32 117.593 68.52 119.513 68.52C121.513 68.52 122.793 69.24 123.353 70.68C121.833 72.2 121.073 73.96 121.073 75.96C121.073 79.96 123.313 81.96 127.793 81.96C130.433 81.96 132.713 81.04 134.633 79.2C136.633 77.36 137.633 75.36 137.633 73.2C137.633 70.96 137.153 69 136.193 67.32C135.233 65.64 134.073 64.16 132.713 62.88C131.353 61.6 129.993 60.32 128.633 59.04C125.353 55.92 123.713 52.36 123.713 48.36C123.713 44.28 125.233 40.88 128.273 38.16C131.393 35.36 135.633 33.96 140.993 33.96C144.353 33.96 147.193 34.56 149.513 35.76C151.833 36.96 152.993 38.84 152.993 41.4C152.993 43.88 152.233 46.04 150.713 47.88C149.193 49.72 147.113 50.64 144.473 50.64C141.913 50.64 140.633 49.44 140.633 47.04C140.633 46.48 141.553 45.64 143.393 44.52C145.233 43.4 146.153 42.24 146.153 41.04C146.153 39.84 145.633 38.96 144.593 38.4C143.633 37.76 142.233 37.44 140.393 37.44C138.553 37.44 136.753 38.08 134.993 39.36C133.313 40.64 132.473 42.32 132.473 44.4C132.473 46.48 133.353 48.44 135.113 50.28C136.873 52.12 138.793 53.68 140.873 54.96C142.953 56.24 144.873 58.04 146.633 60.36C148.393 62.6 149.273 65 149.273 67.56C149.273 70.04 148.673 72.28 147.473 74.28C146.353 76.28 144.993 77.88 143.393 79.08C147.873 77.16 152.633 72.36 157.673 64.68C158.153 64.04 158.993 62.72 160.193 60.72C162.993 55.68 164.553 53.16 164.873 53.16C165.353 53.16 165.593 53.92 165.593 55.44C165.593 56.88 165.193 58.28 164.393 59.64ZM197.145 15.24C193.225 17.96 188.825 24.92 183.945 36.12H196.065L196.185 36.24C196.185 36.64 195.745 37.36 194.865 38.4C193.985 39.36 193.225 39.84 192.585 39.84H182.265C175.945 55.52 172.785 65.6 172.785 70.08C172.785 73.12 173.745 74.64 175.665 74.64C178.465 74.64 181.745 72.24 185.505 67.44C186.385 66.4 187.545 64.64 188.985 62.16C192.665 56.24 194.585 53.28 194.745 53.28C195.225 53.28 195.465 53.92 195.465 55.2C195.385 58.24 192.065 64.16 185.505 72.96C183.345 75.84 180.745 78.52 177.705 81C174.665 83.48 171.905 84.72 169.425 84.72C164.865 84.72 162.585 81.52 162.585 75.12C162.585 69.76 163.865 63.6 166.425 56.64V56.52C164.905 59.32 163.585 61.4 162.465 62.76C161.425 64.12 160.825 64.8 160.665 64.8C160.345 64.8 160.185 64.32 160.185 63.36C160.185 62.32 160.705 60.68 161.745 58.44C162.865 56.2 164.345 53.28 166.185 49.68C168.105 46.08 169.665 42.8 170.865 39.84H162.825C162.585 39.84 162.465 39.68 162.465 39.36C162.465 38.96 162.745 38.32 163.305 37.44C163.945 36.56 164.425 36.12 164.745 36.12H173.865C179.625 22.28 185.465 15.36 191.385 15.36C194.825 15.36 196.745 15.32 197.145 15.24ZM238.908 36L244.908 36.12H246.108C243.468 38.28 240.228 43.76 236.388 52.56C232.548 61.28 230.628 67.64 230.628 71.64C230.628 73.72 231.348 74.76 232.788 74.76C237.428 74.76 243.348 67.92 250.548 54.24C250.868 53.68 251.148 53.4 251.388 53.4C251.868 53.4 252.108 54.16 252.108 55.68C252.108 57.12 251.708 58.52 250.908 59.88C241.068 76.44 232.828 84.72 226.188 84.72C221.868 84.72 219.708 81.4 219.708 74.76C219.708 69.8 220.548 64.92 222.228 60.12C213.108 76.28 204.668 84.36 196.908 84.36C191.548 84.36 188.868 80.68 188.868 73.32C188.868 67.72 190.068 62.04 192.468 56.28C194.948 50.52 198.468 45.64 203.028 41.64C207.588 37.56 212.588 35.52 218.028 35.52C220.588 35.52 222.988 36.12 225.228 37.32C227.468 38.44 228.948 40.28 229.668 42.84C230.548 41 231.908 39.4 233.748 38.04C235.588 36.68 237.308 36 238.908 36ZM228.948 43.92C228.148 41.36 226.268 40.08 223.308 40.08C218.028 40.08 212.908 43.76 207.948 51.12C202.988 58.4 200.508 64.92 200.508 70.68C200.508 73.16 201.468 74.4 203.388 74.4C205.468 74.4 207.908 73.12 210.708 70.56C213.508 67.92 216.028 64.84 218.268 61.32C223.228 53.48 226.788 47.68 228.948 43.92ZM292.147 35.64L297.907 35.76C299.107 35.76 299.867 35.72 300.187 35.64C297.947 37.16 294.707 42.48 290.467 51.6C286.307 60.64 284.227 67.16 284.227 71.16C284.227 73.56 285.027 74.76 286.627 74.76C287.667 74.76 289.067 74.08 290.827 72.72C292.667 71.36 294.227 69.88 295.507 68.28C296.787 66.6 298.147 64.56 299.587 62.16C301.107 59.76 302.387 57.68 303.427 55.92C304.547 54.16 305.187 53.28 305.347 53.28C305.827 53.28 306.067 54.04 306.067 55.56C306.067 57.08 305.627 58.52 304.747 59.88C294.827 76.44 286.547 84.72 279.907 84.72C275.427 84.72 273.187 81.4 273.187 74.76C273.187 72.68 273.347 70.68 273.667 68.76C266.147 79.4 258.987 84.72 252.187 84.72C250.187 84.72 248.547 83.88 247.267 82.2C246.067 80.52 245.467 78.04 245.467 74.76C245.467 71.48 246.627 66.08 248.947 58.56C251.267 50.96 254.107 44.72 257.467 39.84C258.267 38.64 259.107 37.92 259.987 37.68C260.947 37.36 262.707 37.2 265.267 37.2H271.027C269.027 39.92 266.867 43.6 264.547 48.24C259.267 59.2 256.627 67.24 256.627 72.36C256.627 75.4 257.707 76.92 259.867 76.92C262.107 76.92 264.747 74.8 267.787 70.56C270.827 66.32 274.067 60.84 277.507 54.12C281.027 47.32 283.067 43.48 283.627 42.6C286.587 37.96 289.427 35.64 292.147 35.64ZM332.613 35.76L338.733 35.88H339.933C338.733 36.76 337.013 39.36 334.773 43.68C332.613 48 330.973 51.28 329.853 53.52C328.813 55.68 327.613 58.64 326.253 62.4C324.973 66.08 324.333 69.08 324.333 71.4C324.333 73.72 325.133 74.88 326.733 74.88C327.773 74.8 329.213 74.08 331.053 72.72C332.973 71.28 334.533 69.8 335.733 68.28C337.013 66.68 338.373 64.68 339.813 62.28C341.333 59.8 342.613 57.68 343.653 55.92C344.773 54.08 345.413 53.16 345.573 53.16C346.133 53.16 346.413 53.92 346.413 55.44C346.413 56.88 346.013 58.28 345.213 59.64C341.773 65.32 338.933 69.68 336.693 72.72C334.453 75.76 331.733 78.56 328.533 81.12C325.413 83.6 322.573 84.84 320.013 84.84C315.453 84.84 313.173 81.48 313.173 74.76C313.173 70.2 314.053 65.04 315.813 59.28C317.573 53.52 320.173 47.96 323.613 42.6C320.813 44.84 318.013 45.96 315.213 45.96C314.333 45.96 313.413 45.76 312.453 45.36C306.773 56.56 303.693 62.16 303.213 62.16C302.813 62.16 302.613 61.52 302.613 60.24C302.613 58.88 303.093 57.04 304.053 54.72C305.093 52.32 306.173 50.04 307.293 47.88C308.493 45.72 309.133 44.52 309.213 44.28C306.333 42.84 304.893 40.52 304.893 37.32C304.893 35.72 305.373 34.28 306.333 33C307.373 31.72 308.773 31.08 310.533 31.08C312.293 31.08 313.733 31.64 314.853 32.76C314.693 33.24 314.613 33.96 314.613 34.92C314.613 37.08 315.373 38.8 316.893 40.08C318.493 41.28 320.413 41.88 322.653 41.88C323.293 41.88 323.773 41.84 324.093 41.76C326.893 37.76 329.733 35.76 332.613 35.76ZM389.845 36L395.845 36.12H397.045C394.405 38.28 391.165 43.76 387.325 52.56C383.485 61.28 381.565 67.64 381.565 71.64C381.565 73.72 382.285 74.76 383.725 74.76C388.365 74.76 394.285 67.92 401.485 54.24C401.805 53.68 402.085 53.4 402.325 53.4C402.805 53.4 403.045 54.16 403.045 55.68C403.045 57.12 402.645 58.52 401.845 59.88C392.005 76.44 383.765 84.72 377.125 84.72C372.805 84.72 370.645 81.4 370.645 74.76C370.645 69.8 371.485 64.92 373.165 60.12C364.045 76.28 355.605 84.36 347.845 84.36C342.485 84.36 339.805 80.68 339.805 73.32C339.805 67.72 341.005 62.04 343.405 56.28C345.885 50.52 349.405 45.64 353.965 41.64C358.525 37.56 363.525 35.52 368.965 35.52C371.525 35.52 373.925 36.12 376.165 37.32C378.405 38.44 379.885 40.28 380.605 42.84C381.485 41 382.845 39.4 384.685 38.04C386.525 36.68 388.245 36 389.845 36ZM379.885 43.92C379.085 41.36 377.205 40.08 374.245 40.08C368.965 40.08 363.845 43.76 358.885 51.12C353.925 58.4 351.445 64.92 351.445 70.68C351.445 73.16 352.405 74.4 354.325 74.4C356.405 74.4 358.845 73.12 361.645 70.56C364.445 67.92 366.965 64.84 369.205 61.32C374.165 53.48 377.725 47.68 379.885 43.92ZM454.124 59.88C451.164 64.84 448.444 69 445.964 72.36C443.564 75.64 440.804 78.52 437.684 81C434.564 83.48 431.724 84.72 429.164 84.72C424.444 84.72 422.084 82.12 422.084 76.92C422.084 71.72 425.084 61.28 431.084 45.6C431.404 44.88 431.564 44.12 431.564 43.32C431.564 41.64 430.484 40.8 428.324 40.8C426.244 40.8 424.164 41.48 422.084 42.84C420.084 44.12 418.244 46 416.564 48.48C414.884 50.88 413.364 53.36 412.004 55.92C410.644 58.4 409.364 61.28 408.164 64.56C407.044 67.84 406.124 70.6 405.404 72.84C404.764 75 404.084 77.36 403.364 79.92C402.724 82.4 402.364 83.76 402.284 84H390.644C390.644 82.32 394.164 72.68 401.204 55.08C404.084 46.84 405.524 41.08 405.524 37.8C405.524 37 405.404 36.4 405.164 36H410.204C413.004 36 414.804 36.28 415.604 36.84C416.404 37.4 416.804 38.16 416.804 39.12C416.804 40.08 416.364 42.04 415.484 45C422.204 38.6 428.964 35.4 435.764 35.4C440.324 35.4 442.604 37.48 442.604 41.64C442.604 43 442.404 44.36 442.004 45.72C441.604 47.08 440.604 49.8 439.004 53.88C435.484 62.84 433.724 68.84 433.724 71.88C433.724 73.8 434.444 74.76 435.884 74.76C436.924 74.76 438.364 74.04 440.204 72.6C442.124 71.16 443.684 69.68 444.884 68.16C446.164 66.56 447.524 64.6 448.964 62.28C450.484 59.88 451.764 57.8 452.804 56.04C453.844 54.28 454.444 53.4 454.604 53.4C455.084 53.4 455.324 54.16 455.324 55.68C455.324 57.12 454.924 58.52 454.124 59.88ZM486.95 15.24C483.03 17.96 478.63 24.92 473.75 36.12H485.87L485.99 36.24C485.99 36.64 485.55 37.36 484.67 38.4C483.79 39.36 483.03 39.84 482.39 39.84H472.07C465.75 55.52 462.59 65.6 462.59 70.08C462.59 73.12 463.55 74.64 465.47 74.64C468.27 74.64 471.55 72.24 475.31 67.44C476.19 66.4 477.35 64.64 478.79 62.16C482.47 56.24 484.39 53.28 484.55 53.28C485.03 53.28 485.27 53.92 485.27 55.2C485.19 58.24 481.87 64.16 475.31 72.96C473.15 75.84 470.55 78.52 467.51 81C464.47 83.48 461.71 84.72 459.23 84.72C454.67 84.72 452.39 81.52 452.39 75.12C452.39 69.76 453.67 63.6 456.23 56.64V56.52C454.71 59.32 453.39 61.4 452.27 62.76C451.23 64.12 450.63 64.8 450.47 64.8C450.15 64.8 449.99 64.32 449.99 63.36C449.99 62.32 450.51 60.68 451.55 58.44C452.67 56.2 454.15 53.28 455.99 49.68C457.91 46.08 459.47 42.8 460.67 39.84H452.63C452.39 39.84 452.27 39.68 452.27 39.36C452.27 38.96 452.55 38.32 453.11 37.44C453.75 36.56 454.23 36.12 454.55 36.12H463.67C469.43 22.28 475.27 15.36 481.19 15.36C484.63 15.36 486.55 15.32 486.95 15.24Z" fill="white"/>
</svg>
